<?xml version="1.0" standalone="no"?>
<!DOCTYPE svg PUBLIC "-//W3C//DTD SVG 20010904//EN"
 "http://www.w3.org/TR/2001/REC-SVG-20010904/DTD/svg10.dtd">
<svg version="1.0" xmlns="http://www.w3.org/2000/svg"
 width="953.000000pt" height="1600.000000pt" viewBox="0 0 953.000000 1600.000000"
 preserveAspectRatio="xMidYMid meet">

<g transform="translate(0.000000,1600.000000) scale(0.100000,-0.100000)"
fill="#000000" stroke="none">
<path d="M4735 15030 c-60 -4 -128 -14 -150 -23 -22 -9 -52 -16 -66 -17 -14 0
-48 -7 -75 -15 -27 -8 -90 -15 -139 -17 -54 -1 -98 -7 -110 -15 -11 -7 -30
-13 -42 -13 -13 0 -69 -23 -126 -51 -115 -59 -124 -61 -264 -94 -55 -13 -111
-32 -123 -42 -12 -10 -28 -22 -34 -28 -12 -10 -43 -28 -116 -67 -78 -42 -112
-65 -109 -71 6 -11 -35 -35 -70 -40 -28 -5 -61 -24 -81 -48 -3 -3 -24 -18 -48
-33 -23 -15 -47 -37 -53 -49 -6 -12 -35 -42 -65 -67 -31 -25 -83 -76 -117
-114 -90 -101 -186 -195 -228 -223 -23 -15 -44 -42 -60 -76 -31 -70 -88 -158
-117 -181 -33 -26 -72 -69 -72 -79 0 -4 -9 -20 -20 -35 -10 -15 -31 -63 -46
-107 -37 -111 -47 -129 -98 -161 -32 -20 -46 -37 -50 -58 -4 -17 -16 -41 -28
-54 -17 -17 -22 -35 -21 -65 1 -42 -29 -108 -69 -151 -10 -11 -20 -27 -23 -35
-3 -9 -20 -25 -39 -35 l-35 -19 5 -65 c5 -54 3 -68 -11 -78 -9 -7 -18 -18 -19
-26 -2 -7 -6 -20 -9 -28 -3 -8 -8 -32 -12 -54 -3 -21 -18 -64 -32 -95 -28 -62
-56 -179 -48 -199 3 -7 -2 -27 -11 -45 -27 -51 -47 -166 -33 -183 9 -11 9 -24
1 -52 -18 -62 -32 -171 -37 -287 -3 -60 -10 -148 -16 -195 -16 -124 -26 -751
-13 -793 3 -10 -2 -27 -11 -37 -9 -10 -14 -23 -11 -29 4 -5 2 -31 -4 -58 -10
-43 -9 -49 9 -65 26 -20 27 -50 4 -89 -15 -25 -15 -33 -5 -50 7 -11 10 -29 7
-40 -4 -10 -1 -34 6 -53 11 -30 10 -44 -9 -103 l-22 -68 20 -27 c11 -15 20
-39 20 -53 0 -14 9 -50 19 -81 11 -30 18 -61 16 -67 -2 -7 -6 -62 -9 -124 -3
-66 -11 -126 -21 -148 -8 -21 -15 -46 -15 -56 0 -11 -6 -19 -14 -19 -8 0 -16
-5 -18 -11 -2 -7 -24 -11 -50 -11 -39 1 -51 -3 -70 -26 -13 -15 -34 -32 -48
-38 -15 -7 -37 -33 -51 -60 -21 -41 -25 -61 -24 -126 1 -43 5 -81 8 -85 4 -3
7 -15 7 -25 0 -12 7 -18 25 -18 13 0 36 -6 51 -12 26 -12 29 -10 69 37 47 55
52 59 112 110 26 23 44 32 48 25 4 -6 -3 -43 -15 -82 -14 -47 -20 -84 -16
-107 14 -83 28 -210 30 -266 1 -33 7 -70 14 -82 7 -13 10 -23 6 -23 -3 0 -2
-6 4 -12 5 -8 6 -22 2 -33 -5 -11 -6 -58 -3 -105 4 -69 2 -93 -13 -127 -14
-32 -21 -39 -31 -31 -7 5 -20 7 -29 4 -13 -5 -14 -9 -4 -21 8 -10 18 -11 36
-4 44 16 66 12 62 -12 -2 -12 -12 -27 -23 -33 -11 -6 -22 -12 -24 -13 -2 -1 4
-14 13 -28 12 -19 17 -54 20 -136 l3 -111 -28 -10 c-16 -5 -30 -13 -30 -16 -1
-4 -3 -17 -4 -28 -1 -12 -5 -26 -9 -33 -10 -15 0 -14 28 4 12 8 40 16 62 18
39 2 39 2 51 -48 10 -38 11 -61 2 -98 -8 -36 -8 -51 1 -62 8 -10 10 -31 5 -64
-4 -29 -2 -57 4 -69 7 -13 7 -22 -1 -30 -8 -8 -8 -15 -1 -24 12 -14 22 -95 22
-165 0 -23 6 -51 13 -62 10 -16 10 -30 0 -66 -16 -60 -16 -70 2 -56 18 15 22
8 30 -61 5 -37 3 -65 -5 -79 -15 -28 -15 -115 1 -133 8 -10 8 -21 2 -33 -11
-21 0 -58 21 -66 18 -7 27 -62 16 -102 -7 -22 -4 -43 13 -83 20 -47 21 -58 10
-98 -13 -48 -8 -69 14 -60 21 8 27 -10 30 -90 3 -73 19 -119 48 -143 9 -8 16
-21 16 -31 0 -10 7 -20 15 -24 19 -7 19 -40 0 -56 -22 -19 -18 -27 16 -34 21
-4 29 -10 26 -20 -3 -8 1 -17 9 -20 18 -7 46 3 38 15 -3 5 0 9 5 9 6 0 11 -11
11 -24 0 -14 5 -28 11 -32 6 -3 9 -19 5 -35 -5 -25 -3 -29 18 -29 21 0 56 -27
56 -44 0 -4 12 -18 28 -31 24 -21 25 -26 14 -44 -16 -28 -17 -70 0 -53 7 7 15
12 18 12 6 0 12 -54 11 -105 0 -16 0 -41 -1 -54 0 -13 -11 -43 -24 -65 -13
-23 -56 -103 -95 -180 -40 -76 -103 -184 -140 -240 -38 -55 -78 -119 -90 -141
-12 -22 -32 -58 -46 -80 -28 -47 -89 -231 -80 -245 3 -5 -1 -20 -10 -33 -9
-14 -18 -33 -20 -43 -2 -11 -15 -72 -29 -136 -13 -65 -27 -126 -30 -136 -3 -9
-15 -82 -26 -161 -11 -79 -24 -149 -28 -155 -5 -6 -14 -39 -21 -73 -14 -74
-10 -86 58 -153 85 -84 211 -195 237 -208 15 -8 41 -11 62 -8 20 3 41 5 46 6
4 0 6 9 3 19 -3 12 0 18 7 15 12 -5 16 60 3 72 -4 4 -7 1 -7 -6 0 -7 -3 -10
-7 -7 -3 4 2 16 12 27 13 15 17 36 17 90 -1 40 -6 77 -11 84 -7 9 -7 16 2 25
7 7 12 41 13 79 1 80 13 160 25 168 5 3 9 32 9 65 0 32 4 59 9 59 7 0 13 50
27 240 3 36 8 72 11 80 3 8 5 19 4 24 -1 5 10 46 25 92 26 80 49 109 65 82 6
-10 12 -8 23 7 20 26 20 35 0 35 -14 0 -14 3 -4 15 10 12 10 18 0 30 -10 12
-10 15 4 15 9 0 16 -7 16 -15 0 -22 21 -56 48 -78 13 -11 22 -29 21 -41 0 -11
0 -30 1 -41 l1 -20 10 20 c6 14 7 5 3 -29 -5 -44 -4 -48 9 -37 13 10 15 9 10
-9 -3 -11 -9 -23 -14 -26 -5 -3 -9 -18 -9 -35 0 -16 -5 -29 -10 -29 -6 0 -8
-18 -4 -47 12 -98 15 -333 4 -333 -7 0 -8 -6 0 -19 14 -27 13 -31 -6 -31 -9 0
-22 7 -29 17 -18 24 -37 7 -30 -28 5 -21 1 -36 -14 -55 -25 -32 -26 -44 -6
-44 10 0 15 -10 15 -28 0 -22 -7 -30 -37 -44 l-38 -17 31 -11 c28 -10 31 -15
30 -53 -1 -35 2 -42 20 -45 11 -2 27 4 34 13 7 8 21 15 31 15 13 0 17 5 12 17
-4 10 -2 14 4 10 7 -4 18 12 29 40 9 27 23 55 31 64 7 8 13 25 13 37 0 26 38
39 67 23 15 -7 19 -18 15 -39 -3 -24 1 -31 26 -41 20 -8 29 -18 25 -27 -7 -20
14 -17 27 4 9 13 10 4 7 -41 -3 -42 0 -57 9 -57 28 0 90 -41 109 -72 33 -56
83 -100 106 -93 17 6 19 3 14 -17 -5 -21 -3 -24 22 -23 20 0 27 -5 26 -15 -2
-9 11 -24 27 -33 17 -10 30 -23 30 -29 0 -6 17 -27 38 -47 21 -20 43 -49 50
-64 15 -36 38 -44 62 -22 17 16 19 16 29 -4 9 -16 7 -23 -10 -35 -25 -17 -19
-49 8 -44 12 2 19 -4 21 -19 2 -13 10 -23 18 -23 8 0 14 -10 14 -26 0 -19 8
-28 35 -40 19 -8 42 -25 51 -39 16 -25 54 -35 54 -14 0 7 -8 18 -18 25 -16 13
-16 15 1 25 24 14 21 26 -10 54 -25 22 -26 24 -8 25 30 0 126 -42 151 -68 13
-12 28 -22 35 -22 7 0 9 -9 5 -24 -6 -25 7 -36 44 -36 10 0 20 -10 24 -22 5
-20 8 -21 17 -8 8 11 9 4 5 -27 -6 -45 6 -57 32 -31 8 8 13 5 21 -13 5 -13 20
-36 35 -52 29 -31 25 -61 -6 -51 -15 4 -19 2 -15 -7 2 -8 10 -13 17 -11 7 1
18 -2 26 -9 8 -6 21 -9 29 -5 17 6 139 -46 150 -64 4 -6 1 -17 -5 -25 -7 -8
-8 -15 -3 -15 5 0 14 -13 20 -29 9 -24 15 -28 37 -24 15 3 45 -3 69 -13 65
-29 71 -47 17 -57 -35 -8 -38 -17 -9 -35 12 -8 18 -9 14 -3 -3 6 1 11 10 11 9
0 13 -4 10 -10 -7 -11 21 -70 33 -70 5 0 13 5 19 11 8 8 17 8 31 0 10 -6 23
-7 27 -3 5 4 5 -1 2 -10 -3 -10 -2 -20 4 -24 14 -9 -6 -31 -36 -38 -35 -9 -31
-28 5 -24 33 3 59 -22 60 -59 0 -13 6 -23 15 -23 7 0 18 -7 23 -16 6 -11 17
-15 31 -11 15 3 21 1 21 -10 0 -13 3 -13 15 -3 8 7 15 16 15 21 0 5 38 46 85
91 47 45 97 100 112 121 15 22 41 54 58 71 44 46 104 115 150 171 59 72 97
116 129 150 15 16 49 56 75 89 63 80 128 151 246 270 99 99 239 259 261 297 6
11 21 30 32 42 11 12 38 45 59 73 21 29 70 90 109 136 39 46 74 94 78 106 4
12 21 37 38 55 16 17 44 52 61 77 17 25 51 71 76 102 89 110 114 149 115 177
1 18 5 27 13 24 7 -3 22 11 33 31 12 19 30 38 41 41 11 4 27 17 35 31 9 13 24
24 33 24 14 1 14 2 -1 14 -10 7 -18 18 -18 25 0 11 5 13 55 15 26 1 30 5 35
36 7 43 41 113 56 117 6 2 15 -4 18 -13 5 -12 -2 -25 -21 -41 l-28 -23 25 -20
c32 -25 40 -25 40 3 0 24 19 79 38 114 7 12 12 37 12 56 0 32 3 35 38 43 20 4
40 7 45 6 4 -1 12 10 17 25 6 16 14 37 19 48 19 44 31 93 31 121 0 35 34 110
52 117 10 4 9 8 -2 16 -11 8 -12 13 -4 19 6 4 15 38 19 75 6 62 9 69 33 78 15
6 37 20 49 31 19 17 22 28 17 59 -5 31 -3 40 15 51 11 7 21 20 21 28 0 24 63
118 83 123 10 3 17 15 17 30 0 14 8 32 18 39 17 13 63 101 76 145 4 12 15 25
25 28 19 6 81 120 81 149 0 29 38 93 58 98 16 4 20 19 26 79 4 41 14 88 21
104 8 17 21 54 29 84 9 29 21 60 27 68 9 10 9 20 0 39 -10 22 -9 26 8 31 15 4
22 19 30 67 6 35 11 72 11 84 0 12 7 50 16 85 44 173 55 239 42 255 -7 8 -7
12 0 12 6 0 10 39 10 96 0 53 4 99 9 103 5 3 10 31 11 61 4 64 6 68 33 52 17
-11 24 -9 50 13 17 14 35 25 40 25 5 0 9 7 9 15 0 8 -4 15 -10 15 -13 0 -13
63 0 76 5 5 15 37 20 69 6 33 16 72 21 87 8 19 8 37 0 60 -7 22 -8 52 -2 88 6
36 5 59 -1 68 -7 8 -7 12 1 12 8 0 10 8 6 20 -4 14 2 28 20 46 15 15 24 33 21
41 -8 21 14 94 36 119 23 26 22 33 -6 66 -37 42 -69 45 -112 13 -39 -30 -52
-28 -33 3 10 17 10 23 -1 37 -12 15 -12 19 3 30 11 8 17 27 18 51 0 31 2 35 9
19 5 -11 9 -15 10 -10 7 45 5 57 -12 66 -22 12 -23 27 -2 50 16 18 25 48 46
162 13 67 30 72 63 21 15 -24 29 -33 60 -37 22 -3 43 -3 47 1 7 7 10 86 7 152
-1 19 1 44 4 55 5 15 -3 30 -29 57 -19 21 -42 38 -50 38 -19 0 -18 17 2 28 14
8 14 10 0 21 -9 8 -16 20 -16 28 0 7 -7 16 -16 20 -11 4 -13 14 -10 34 4 16 9
43 12 59 7 36 34 41 34 6 0 -14 -5 -28 -10 -31 -6 -3 -10 -15 -10 -26 0 -27
40 -25 70 4 13 12 40 27 60 32 45 14 51 43 15 79 -16 16 -24 33 -21 42 3 9 6
23 6 31 0 25 29 -5 52 -52 10 -22 34 -65 53 -95 58 -92 66 -113 91 -247 6 -30
22 -29 30 2 8 34 8 63 -1 113 -7 38 -6 42 13 42 12 0 25 8 30 18 12 22 35 137
37 183 1 19 5 40 8 46 4 6 4 18 1 27 -4 11 -1 16 10 16 13 0 16 12 16 63 0 46
3 58 11 47 11 -15 9 21 -7 158 -4 31 -2 63 4 75 6 12 13 34 16 50 3 15 9 39
12 55 4 21 3 24 -5 12 -10 -13 -11 -13 -11 0 0 13 -1 13 -10 0 -8 -12 -10 -11
-10 8 0 30 -26 28 -34 -3 -10 -40 -93 -155 -155 -215 -31 -30 -70 -71 -86 -90
-17 -20 -42 -43 -56 -52 -20 -12 -28 -28 -32 -62 -9 -65 -97 -224 -97 -176 0
6 5 10 10 10 13 0 13 37 1 45 -6 3 -15 -4 -21 -15 -23 -43 -30 -17 -29 116 0
85 -4 140 -11 148 -26 32 22 162 56 149 12 -5 13 -7 2 -14 -11 -7 -10 -9 1 -9
11 0 10 -5 -4 -20 -10 -11 -13 -20 -8 -20 15 0 36 27 29 38 -3 6 1 15 9 22 22
18 20 43 -2 32 -17 -9 -61 -7 -71 3 -9 9 22 301 34 315 15 18 26 159 14 175
-23 30 -13 194 12 179 4 -3 8 2 8 10 0 8 -4 17 -10 21 -6 4 -6 15 0 31 6 14
10 49 11 77 0 29 5 75 10 102 5 28 13 88 18 135 5 47 16 105 25 130 10 25 19
80 22 124 3 55 12 92 29 126 13 26 22 56 19 68 -3 11 -1 30 6 41 14 27 24 207
19 356 -3 107 -3 267 -1 430 2 86 -35 257 -81 376 -34 91 -57 171 -57 205 -1
16 -7 40 -15 54 -7 14 -11 36 -9 50 4 17 -3 36 -20 59 -14 19 -26 43 -26 52 0
10 -6 30 -14 46 -13 27 -44 116 -50 141 -1 7 -7 17 -13 23 -9 9 -8 18 3 35 14
20 14 23 -3 33 -10 6 -14 11 -9 11 4 0 2 10 -7 23 -8 12 -18 41 -22 64 -3 24
-11 41 -17 40 -5 -1 -11 10 -13 25 -4 31 -34 80 -45 73 -4 -3 -11 2 -14 11 -3
8 -2 12 4 9 24 -15 7 15 -30 51 -29 29 -40 47 -40 70 0 19 -6 34 -15 38 -8 3
-15 15 -15 26 0 11 -4 20 -10 20 -5 0 -10 8 -10 18 0 9 -10 33 -23 52 -13 19
-34 67 -47 105 -31 89 -82 152 -152 187 -30 16 -60 38 -65 51 -6 13 -27 31
-46 40 -20 10 -68 48 -107 85 -40 37 -81 70 -92 75 -11 4 -47 23 -79 43 -32
20 -70 37 -84 37 -18 0 -29 7 -35 22 -5 12 -28 32 -51 44 -23 12 -56 36 -73
52 -67 64 -78 74 -84 74 -4 0 -21 14 -38 30 -18 17 -39 36 -49 44 -10 8 -15
21 -12 33 3 11 3 17 0 14 -3 -3 -12 1 -20 9 -8 8 -26 17 -41 21 -15 3 -49 14
-77 24 -27 11 -63 21 -80 23 -16 3 -29 10 -28 16 2 6 0 11 -5 12 -71 5 -119
14 -157 29 -16 6 -45 14 -63 16 -18 2 -60 17 -95 34 -53 25 -74 29 -142 29
-48 0 -97 6 -124 15 -24 9 -46 14 -50 12 -3 -2 -53 0 -111 5 -58 6 -150 12
-205 14 -55 3 -113 7 -130 10 -64 10 -185 12 -290 5z m1565 -300 c0 -5 -7 -10
-15 -10 -8 0 -15 5 -15 10 0 6 7 10 15 10 8 0 15 -4 15 -10z m-1137 -1037 c5
-3 12 -16 17 -29 5 -13 16 -24 24 -24 9 0 20 -9 26 -20 6 -11 20 -20 30 -20
11 0 20 -4 20 -9 0 -4 19 -12 43 -17 28 -6 45 -16 51 -30 12 -28 66 -44 143
-44 46 0 65 -5 83 -20 25 -22 45 -26 55 -10 11 18 25 11 25 -12 l0 -23 19 24
c15 20 21 22 39 12 11 -6 30 -11 41 -11 12 0 21 -4 21 -9 0 -5 9 -11 20 -14
16 -4 20 0 20 20 0 20 4 24 18 18 9 -4 32 -9 50 -12 17 -3 32 -10 32 -16 0 -6
15 -7 38 -4 23 4 47 1 63 -7 14 -7 42 -16 61 -20 20 -3 48 -18 64 -31 16 -14
32 -25 35 -25 4 0 9 -9 12 -20 3 -11 17 -22 33 -26 16 -3 34 -13 40 -20 6 -8
22 -15 35 -16 13 -2 37 -19 54 -38 l30 -35 30 27 29 28 31 -30 c21 -20 41 -30
62 -30 17 0 36 -7 43 -15 7 -8 19 -15 26 -15 8 0 31 -15 51 -34 21 -18 48 -37
61 -40 12 -4 19 -12 16 -18 -5 -8 5 -9 30 -5 32 5 41 2 63 -21 18 -20 26 -23
32 -13 6 9 10 7 14 -8 3 -12 12 -21 21 -21 9 0 16 -7 16 -15 0 -8 6 -15 13
-15 6 0 31 -21 55 -45 24 -25 48 -45 53 -45 6 0 8 -4 5 -8 -3 -5 8 -22 25 -38
16 -15 27 -34 25 -40 -3 -7 11 -23 30 -36 19 -12 37 -32 40 -43 4 -11 22 -38
40 -59 19 -22 34 -50 34 -62 0 -13 13 -38 29 -56 30 -35 62 -127 54 -157 -2
-10 2 -25 11 -33 19 -19 30 -78 27 -148 -1 -30 -3 -66 -3 -80 -1 -29 15 -114
39 -214 l17 -68 -23 -19 c-26 -21 -24 -53 10 -128 17 -36 18 -48 9 -72 -10
-23 -9 -32 10 -57 12 -17 20 -36 17 -44 -4 -8 -6 -6 -6 6 -1 15 -4 16 -16 6
-10 -8 -12 -17 -6 -29 5 -9 7 -28 4 -43 -5 -24 -1 -28 36 -38 l41 -11 0 -64
c0 -35 4 -66 10 -70 6 -4 5 -15 -2 -30 -12 -27 -5 -56 14 -53 10 2 13 -17 13
-76 0 -51 4 -81 11 -83 7 -2 10 -12 7 -23 -3 -10 4 -27 16 -39 20 -20 21 -29
16 -124 -3 -56 -8 -118 -11 -137 -10 -61 4 -395 20 -495 6 -33 22 -232 30
-365 2 -47 9 -112 15 -146 15 -83 20 -428 9 -539 -7 -75 -12 -145 -19 -307 0
-9 -9 -24 -20 -34 -10 -9 -19 -28 -19 -41 0 -13 -6 -36 -14 -51 -12 -24 -18
-69 -31 -237 -1 -21 -8 -41 -14 -43 -15 -5 -14 -49 1 -54 17 -6 -6 -80 -36
-115 -20 -23 -22 -32 -14 -66 5 -22 6 -47 2 -56 -4 -9 -6 -24 -5 -34 1 -9 -7
-29 -18 -43 -12 -15 -21 -32 -21 -38 0 -17 -34 -82 -54 -101 -9 -9 -16 -31
-16 -48 0 -50 -10 -75 -32 -80 -17 -5 -19 -11 -13 -46 4 -27 3 -41 -4 -41 -6
0 -8 -11 -5 -29 4 -20 2 -30 -10 -34 -9 -4 -16 -1 -16 6 -1 7 -5 6 -13 -4 -10
-13 -15 -14 -24 -4 -19 20 -54 5 -65 -26 -10 -30 -32 -39 -41 -16 -3 7 -6 4
-6 -6 -1 -26 -28 -50 -45 -40 -8 4 -14 13 -13 18 1 6 -13 11 -32 13 l-33 3 28
30 c25 26 29 27 44 14 21 -19 52 -9 48 14 -2 12 -12 15 -36 13 -24 -3 -32 0
-32 12 0 11 9 16 30 16 32 0 80 19 80 32 0 11 -14 10 -26 -1 -5 -6 -19 -4 -34
4 -14 8 -19 14 -12 15 6 0 12 9 12 20 0 19 -4 20 -37 14 -21 -4 -46 -11 -55
-15 -12 -7 -20 -4 -27 8 -7 13 -20 17 -50 14 -31 -2 -41 1 -41 12 0 16 -49 37
-86 37 -19 0 -24 -5 -24 -27 -1 -25 -2 -26 -14 -10 -15 19 -37 22 -52 8 -14
-15 -197 -16 -202 -2 -2 6 -10 11 -18 11 -8 0 -14 6 -14 14 0 19 -35 30 -55
18 -15 -8 -15 -10 -1 -21 10 -8 16 -29 16 -52 0 -22 5 -39 10 -39 6 0 10 5 10
12 0 8 3 9 10 2 5 -5 6 -20 3 -34 -5 -18 -8 -20 -12 -8 -4 11 -12 13 -28 7
-30 -11 -20 -32 22 -49 43 -17 44 -32 4 -47 -27 -11 -31 -10 -41 13 -7 14 -20
24 -33 24 -11 0 -27 6 -33 12 -16 16 -32 -5 -32 -40 0 -13 -7 -30 -15 -38 -13
-14 -15 -13 -15 4 0 11 -9 22 -21 25 -16 4 -20 12 -17 39 3 30 6 33 35 32 38
-2 35 8 -8 30 -21 11 -37 13 -48 6 -22 -11 -61 -2 -61 14 0 6 -9 19 -21 29
-13 12 -18 24 -14 37 10 30 -21 36 -65 13 -24 -13 -43 -18 -51 -12 -8 5 -22 9
-32 9 -15 0 -17 -5 -12 -30 4 -18 3 -30 -4 -30 -14 0 -51 55 -51 77 0 34 -12
63 -26 63 -10 0 -14 12 -14 39 0 21 -3 52 -6 68 -4 20 -1 35 9 44 13 12 12 15
-1 25 -16 12 -61 169 -61 217 -1 20 -6 27 -21 27 -20 0 -24 -8 -20 -48 1 -13
-4 -30 -10 -38 -10 -11 -9 -14 2 -14 11 0 14 -7 10 -25 -5 -27 -22 -35 -22
-10 0 8 -4 15 -10 15 -5 0 -10 -11 -10 -25 0 -37 -36 -70 -64 -57 -11 5 -54
20 -95 33 -41 13 -88 36 -104 50 -25 23 -27 30 -18 48 10 17 9 22 -3 27 -9 3
-21 4 -28 1 -7 -2 -24 4 -37 14 -29 23 -50 24 -78 4 -19 -13 -23 -13 -30 -1
-15 25 -70 7 -108 -36 -20 -21 -33 -43 -30 -48 3 -5 -5 -10 -17 -12 -15 -2
-22 -9 -22 -21 1 -9 -4 -17 -12 -17 -20 0 -27 19 -10 26 24 9 20 37 -4 29 -11
-4 -32 -8 -48 -9 -19 -2 -28 -10 -30 -25 -4 -27 -16 -27 -34 1 -14 21 -16 21
-39 7 -22 -15 -26 -14 -43 2 -14 14 -23 16 -32 8 -8 -7 -19 -7 -31 -1 -10 5
-37 8 -60 7 -24 -2 -43 1 -43 6 0 5 -8 9 -18 9 -9 0 -23 9 -30 20 -7 12 -23
20 -41 20 -20 0 -36 9 -52 30 -33 41 -82 72 -154 94 -33 11 -67 26 -76 33 -22
19 -43 16 -65 -8 -14 -16 -15 -22 -5 -28 11 -7 11 -13 0 -32 -16 -30 -35 -49
-48 -49 -6 0 -11 -4 -11 -9 0 -5 -8 -12 -17 -15 -10 -4 -31 -14 -48 -23 -16
-9 -50 -17 -75 -18 -25 -2 -56 -7 -70 -13 -14 -5 -27 -7 -30 -3 -3 3 -19 7
-37 8 -31 2 -48 10 -120 53 -28 16 -33 17 -44 4 -9 -11 -9 -18 -1 -26 7 -7 12
-21 12 -33 0 -12 7 -30 15 -41 19 -25 19 -52 -1 -71 -8 -9 -13 -24 -11 -34 3
-11 1 -19 -4 -19 -6 0 -6 -7 0 -18 11 -20 4 -62 -10 -62 -5 0 -9 6 -9 13 0 14
-37 53 -44 46 -16 -17 -45 -91 -40 -102 5 -15 -21 -31 -37 -21 -5 3 -9 1 -9
-3 0 -5 -14 -17 -30 -27 -23 -13 -29 -23 -25 -37 7 -22 -2 -42 -16 -33 -6 4
-6 11 1 19 8 9 8 15 0 20 -5 3 -10 15 -10 27 0 18 -4 20 -31 14 -30 -6 -31 -5
-26 22 l6 27 -12 -27 c-6 -16 -18 -28 -28 -28 -9 0 -22 -7 -29 -15 -7 -8 -18
-15 -24 -15 -7 0 -29 -9 -51 -20 -48 -25 -66 -9 -32 30 12 14 23 27 25 30 2 2
7 -2 12 -10 7 -11 11 -11 24 -1 9 8 16 22 16 33 0 15 -3 17 -19 8 -29 -15 -51
-12 -51 6 0 20 -20 13 -34 -11 -16 -29 -47 -55 -65 -55 -29 0 -61 -30 -61 -57
0 -22 -23 -52 -41 -53 -3 0 -4 14 -1 30 4 28 -6 39 -22 23 -11 -11 -45 -13
-51 -3 -19 31 -55 -14 -55 -69 0 -15 -6 -36 -14 -46 -13 -18 -14 -18 -24 2 -6
11 -9 37 -5 57 6 39 -14 53 -24 16 -6 -22 -6 -22 -27 -14 -9 3 -16 15 -16 25
0 13 -7 19 -21 19 -53 0 -67 79 -24 143 14 20 29 37 34 37 20 0 65 84 66 121
0 22 -3 39 -7 39 -5 0 -8 -9 -8 -20 0 -17 -7 -20 -39 -20 -22 0 -41 -5 -43
-12 -3 -7 -21 -12 -41 -11 -20 1 -37 -3 -37 -8 0 -5 10 -9 23 -9 18 0 19 -2 7
-10 -8 -5 -38 -10 -66 -10 -34 0 -56 -5 -64 -15 -13 -16 -87 -16 -122 0 -13 5
-18 3 -18 -9 0 -9 7 -16 15 -16 8 0 15 -4 15 -10 0 -5 -9 -10 -20 -10 -13 0
-18 -5 -13 -16 3 -9 -3 -23 -15 -34 -13 -12 -18 -27 -15 -40 5 -18 1 -20 -35
-20 -23 0 -44 -5 -47 -11 -5 -7 -13 -4 -26 7 -14 13 -28 15 -60 10 l-41 -7 7
47 c4 29 3 44 -3 40 -12 -7 -35 18 -25 27 3 4 -6 7 -22 7 -16 0 -35 9 -46 21
-15 17 -21 19 -39 9 -35 -19 -52 -6 -44 35 4 26 2 41 -9 53 -8 9 -18 33 -22
53 -8 43 -24 70 -31 52 -4 -9 -11 -9 -30 -1 -19 9 -24 19 -24 49 0 25 -5 39
-16 43 -13 5 -15 15 -11 43 4 20 2 43 -3 53 -9 17 -16 68 -28 201 -4 42 -12
82 -19 90 -6 8 -11 37 -11 64 -1 28 -6 70 -13 95 -6 25 -13 83 -16 130 -3 47
-9 91 -15 97 -6 7 -12 34 -13 60 -1 27 -8 72 -15 102 -8 40 -9 66 -1 95 6 23
9 69 8 103 -2 56 -4 60 -21 51 -12 -7 -22 -6 -28 0 -15 15 -2 43 17 36 8 -3
15 -1 15 5 0 6 -3 11 -7 11 -10 0 -7 136 3 152 4 6 9 27 11 47 2 20 8 40 14
46 5 5 9 21 9 37 0 25 24 129 33 146 3 4 8 43 11 87 4 44 11 96 15 115 5 19 9
44 10 55 5 101 38 316 55 366 3 8 7 39 10 69 2 30 9 68 16 85 6 16 11 64 11
105 -1 105 11 205 26 203 14 -3 35 55 25 71 -4 6 -7 47 -7 91 0 59 -3 79 -12
78 -9 -2 -13 9 -13 32 0 30 6 38 40 60 22 14 39 29 39 33 -4 21 3 31 16 26 10
-4 15 0 15 14 0 10 11 36 25 56 16 23 25 51 25 74 0 25 6 41 18 49 10 6 27 36
36 67 10 31 21 56 25 56 13 0 39 62 52 125 6 33 18 70 25 82 8 12 14 42 14 65
1 24 7 54 15 68 8 14 14 43 15 66 0 23 11 72 25 110 22 61 42 167 50 262 1 18
7 38 14 45 6 6 11 26 11 45 0 46 74 197 103 210 4 2 7 12 7 21 0 10 10 26 21
37 12 10 33 43 46 72 14 28 29 52 34 52 5 0 9 6 9 13 0 13 97 101 115 103 5 0
15 2 21 2 6 1 23 20 38 42 14 22 34 40 44 40 10 0 22 4 28 10 6 6 21 6 42 -2
36 -14 40 -11 45 23 2 13 12 26 22 28 11 2 35 13 54 25 47 29 86 43 139 51 24
4 46 14 49 22 4 11 15 13 40 8 30 -5 41 -1 77 29 41 33 112 66 146 66 8 0 28
11 44 25 17 14 35 24 42 21 7 -3 18 1 24 9 13 15 12 15 133 14 72 0 88 3 93
16 6 14 16 15 58 10 42 -6 49 -5 39 6 -7 7 -13 17 -13 21 0 11 71 -1 88 -15 8
-6 17 -6 26 2 11 9 18 8 30 -5 16 -15 19 -15 40 5 12 11 30 21 39 21 10 0 20
7 24 16 3 8 12 13 20 10 8 -3 23 -1 34 5 15 8 32 6 66 -5 48 -17 65 -14 45 6
-26 26 3 41 30 16 7 -7 36 -14 63 -16 28 -2 55 -9 60 -16 27 -35 125 -52 125
-22 0 8 -7 16 -15 20 -8 3 -15 13 -15 22 0 13 3 14 14 5 7 -6 20 -9 29 -5 8 3
30 -2 47 -11 18 -9 42 -14 54 -11 30 7 53 -8 38 -26 -9 -12 -1 -19 44 -41 30
-15 63 -27 73 -27 30 0 51 -11 51 -26 0 -8 10 -14 26 -14 23 0 25 3 20 25 -4
14 -3 25 1 25 5 0 18 3 31 6 20 6 22 3 22 -34 0 -23 5 -44 10 -47 6 -3 10 -17
10 -30 0 -35 18 -40 51 -16 15 11 35 21 43 21 20 0 33 23 17 28 -30 10 -52 44
-49 75 3 32 3 32 -47 35 -27 2 -56 9 -64 15 -8 7 -44 12 -80 12 -56 0 -66 3
-69 18 -3 16 2 18 35 17 85 -4 93 -2 93 26 0 24 2 25 33 19 17 -4 36 -10 40
-12z m37 -117 c0 -15 -18 -31 -26 -23 -7 7 7 37 17 37 5 0 9 -6 9 -14z m-1950
-156 c0 -5 -5 -10 -11 -10 -5 0 -7 5 -4 10 3 6 8 10 11 10 2 0 4 -4 4 -10z
m-1173 -2187 c-3 -10 -5 -2 -5 17 0 19 2 27 5 18 2 -10 2 -26 0 -35z m-37
-178 c0 -8 -4 -15 -10 -15 -5 0 -10 7 -10 15 0 8 5 15 10 15 6 0 10 -7 10 -15z
m918 -2962 c-3 -19 -48 -32 -48 -14 0 10 28 30 43 31 5 0 7 -8 5 -17z m-238
-99 c0 -8 -4 -12 -10 -9 -5 3 -10 10 -10 16 0 5 5 9 10 9 6 0 10 -7 10 -16z
m-460 2 c0 -3 -4 -8 -10 -11 -5 -3 -10 -1 -10 4 0 6 5 11 10 11 6 0 10 -2 10
-4z m1560 -32 c0 -8 5 -14 10 -14 6 0 10 -11 10 -25 0 -14 -4 -25 -10 -25 -5
0 -10 11 -10 25 0 20 -5 25 -25 25 -29 0 -35 26 -7 33 22 5 32 -1 32 -19z
m-380 -123 c0 -12 -20 -25 -27 -18 -7 7 6 27 18 27 5 0 9 -4 9 -9z m-1020 -5
c0 -3 -4 -8 -10 -11 -5 -3 -10 -1 -10 4 0 6 5 11 10 11 6 0 10 -2 10 -4z
m3710 -12 c0 -17 -22 -14 -28 4 -2 7 3 12 12 12 9 0 16 -7 16 -16z m-2293 -31
c-3 -3 -11 -2 -17 2 -8 5 -7 11 2 22 12 15 13 14 16 -1 2 -10 1 -20 -1 -23z
m3023 -8 c0 -18 -5 -25 -20 -25 -15 0 -20 7 -20 25 0 18 5 25 20 25 15 0 20
-7 20 -25z m-3500 6 c0 -14 -41 -41 -52 -35 -14 9 12 44 32 44 11 0 20 -4 20
-9z m3603 -42 c-3 -10 -9 -19 -13 -19 -14 0 -18 24 -8 44 12 23 28 4 21 -25z
m-2825 -8 c16 -22 19 -35 13 -57 l-8 -29 -21 49 c-12 26 -19 52 -16 57 7 13 8
12 32 -20z m-1557 -50 c27 -34 24 -43 -13 -39 -28 3 -33 7 -30 27 2 20 0 22
-12 11 -9 -6 -20 -9 -26 -5 -20 12 -10 36 23 50 29 12 32 12 36 -3 2 -9 12
-28 22 -41z m3635 -8 c-11 -11 -19 6 -11 24 8 17 8 17 12 0 3 -10 2 -21 -1
-24z m779 -53 c3 -5 -1 -10 -10 -10 -9 0 -13 5 -10 10 3 6 8 10 10 10 2 0 7
-4 10 -10z m-2848 -22 c-3 -8 -6 -5 -6 6 -1 11 2 17 5 13 3 -3 4 -12 1 -19z
m2268 2 c3 -5 -1 -10 -9 -10 -9 0 -16 5 -16 10 0 6 4 10 9 10 6 0 13 -4 16
-10z m-3815 -26 c0 -8 -4 -12 -10 -9 -5 3 -10 10 -10 16 0 5 5 9 10 9 6 0 10
-7 10 -16z m2105 -20 c9 -13 16 -14 31 -6 26 14 76 9 105 -11 13 -10 31 -17
41 -17 10 0 18 -4 18 -10 0 -13 66 -29 127 -29 29 0 61 -5 72 -10 10 -6 39
-12 63 -15 23 -2 56 -9 72 -15 16 -6 37 -9 47 -6 24 8 27 -26 4 -45 -16 -13
-105 -22 -203 -21 -53 0 -69 -4 -97 -24 -22 -18 -48 -26 -84 -29 -28 -2 -58
-9 -66 -16 -8 -7 -29 -14 -47 -16 -18 -1 -36 -3 -39 -3 -3 -1 -4 -13 -1 -27 3
-17 9 -23 19 -20 8 3 19 6 24 6 16 0 10 18 -8 23 -13 3 -11 5 6 6 20 1 22 -2
16 -26 -9 -38 -15 -42 -48 -36 -28 5 -54 44 -42 63 3 4 -6 11 -19 14 -13 3
-31 9 -40 12 -11 4 -16 1 -16 -10 0 -9 -2 -16 -4 -16 -2 0 -13 -3 -23 -6 -17
-5 -17 -5 0 6 24 16 21 30 -8 30 -13 0 -28 8 -34 18 -8 15 -13 15 -31 4 -27
-16 -60 -6 -60 18 0 22 -18 26 -140 35 -47 4 -101 11 -121 16 -23 6 -53 5 -85
-2 -27 -6 -107 -13 -179 -15 -71 -2 -149 -5 -172 -8 -28 -3 -45 -1 -50 8 -5 7
-16 16 -27 19 -15 6 -16 10 -6 22 7 9 20 14 28 13 11 -2 22 15 35 55 16 45 22
55 29 43 13 -23 27 -20 34 8 5 21 9 23 32 16 51 -15 80 -33 76 -45 -5 -13 45
-94 59 -95 4 0 7 10 7 23 0 22 3 23 55 20 41 -2 57 1 61 11 4 11 19 14 56 11
41 -3 51 -1 55 13 3 13 15 17 49 17 24 0 44 -3 44 -7 0 -12 38 -9 45 3 4 6 13
8 21 5 7 -3 16 -1 19 4 4 6 19 10 35 10 16 0 31 4 34 8 6 11 64 3 72 -9 3 -5
27 -9 54 -9 45 0 51 3 65 30 18 34 23 36 40 14z m-2129 -95 c-32 -38 -34 -18
-4 47 l23 49 3 -33 c2 -24 -4 -41 -22 -63z m2784 -47 c0 -37 -37 -74 -50 -52
-6 9 -5 19 0 24 6 6 10 18 10 27 0 16 12 26 33 28 4 1 7 -12 7 -27z m75 -2 c7
-24 33 -25 89 -5 27 9 45 11 58 4 12 -7 18 -6 18 1 0 6 12 10 28 8 22 -2 28
-9 30 -33 2 -16 9 -33 15 -37 16 -10 -10 -28 -40 -28 -16 0 -25 8 -29 25 -4
18 -13 25 -29 25 -13 0 -25 -5 -27 -12 -5 -15 -76 -12 -96 4 -10 9 -16 8 -23
-3 -8 -12 -10 -12 -19 1 -11 17 -13 54 -3 63 12 12 22 7 28 -13z m340 -50 c3
-5 1 -10 -4 -10 -6 0 -11 5 -11 10 0 6 2 10 4 10 3 0 8 -4 11 -10z m-68 -32
c-3 -8 -6 -5 -6 6 -1 11 2 17 5 13 3 -3 4 -12 1 -19z m-1146 -101 c-1 -12 -15
-9 -19 4 -3 6 1 10 8 8 6 -3 11 -8 11 -12z m-1201 -179 c0 -7 9 -19 20 -26 11
-7 20 -19 20 -27 0 -8 10 -25 23 -37 12 -13 22 -25 23 -28 7 -43 79 -210 94
-220 5 -3 12 -18 15 -33 4 -16 14 -31 21 -34 8 -3 14 -10 14 -16 0 -21 120
-127 143 -127 13 0 32 -10 43 -21 10 -12 29 -25 42 -30 15 -6 22 -17 22 -34 0
-21 5 -25 28 -25 18 0 35 -10 50 -29 12 -16 36 -31 52 -35 17 -3 30 -11 30
-18 0 -15 147 -91 159 -83 5 2 14 -2 21 -10 7 -8 22 -15 34 -15 13 0 33 -11
46 -25 14 -15 35 -25 52 -25 15 0 28 -4 28 -10 0 -5 9 -10 19 -10 11 0 23 5
26 10 3 6 19 10 35 10 31 0 40 14 40 65 0 46 -20 62 -85 70 -30 4 -55 11 -55
16 0 5 -7 9 -15 9 -9 0 -15 9 -15 21 0 19 -35 58 -53 59 -11 0 -66 62 -72 82
-4 12 -21 20 -47 24 -38 7 -98 46 -98 65 0 18 41 49 65 49 17 0 25 -5 25 -18
0 -14 14 -21 61 -31 56 -11 62 -11 74 6 7 10 11 21 9 25 -8 13 16 58 31 58 17
0 22 55 5 65 -6 4 -9 1 -8 -6 4 -17 -44 -41 -56 -29 -6 6 -17 10 -26 10 -36 0
-108 58 -132 106 -55 113 -48 106 -93 98 -22 -3 -45 -10 -52 -16 -30 -24 -79
113 -64 182 7 37 6 36 85 32 13 -1 35 -14 50 -29 l27 -27 25 27 c20 22 34 27
70 27 61 0 132 -19 147 -39 7 -9 24 -22 40 -30 26 -14 29 -13 44 9 16 23 17
23 162 16 166 -8 206 -17 225 -53 l13 -26 21 21 c38 38 58 42 203 42 l143 0
25 -30 26 -30 71 35 c39 19 92 38 117 41 l46 7 17 -42 c19 -48 28 -50 60 -16
24 26 44 33 44 15 0 -6 10 -8 24 -4 13 3 34 1 45 -6 18 -9 23 -8 31 12 6 16 8
4 4 -42 -2 -36 -7 -73 -10 -82 -8 -28 -57 -78 -75 -78 -9 0 -23 -7 -30 -16
-12 -14 -16 -13 -37 12 l-23 29 -17 -24 c-9 -14 -33 -41 -52 -60 -20 -20 -42
-48 -49 -63 -8 -15 -22 -30 -33 -34 -10 -3 -18 -15 -18 -26 0 -27 -28 -58 -46
-51 -8 3 -14 -1 -14 -11 0 -9 -7 -16 -15 -16 -9 0 -12 -6 -9 -15 4 -8 15 -15
25 -15 10 0 19 -5 19 -11 0 -7 12 -9 34 -5 25 5 35 3 40 -9 11 -30 -24 -85
-55 -85 -10 0 -22 -7 -27 -17 -6 -9 -16 -14 -25 -10 -10 4 -17 -2 -20 -15 -5
-16 -11 -19 -32 -14 -29 7 -65 -8 -65 -28 0 -8 -13 -19 -29 -24 -16 -6 -38
-23 -48 -39 -24 -38 -43 -51 -65 -45 -14 3 -18 -1 -18 -21 0 -27 -40 -74 -49
-58 -4 5 -23 12 -44 16 -36 7 -37 7 -37 -24 0 -29 2 -31 20 -21 24 13 60 -3
60 -25 0 -19 0 -19 40 2 24 12 35 13 38 5 2 -7 9 -9 15 -5 6 3 51 8 99 10 49
1 109 9 134 18 25 8 51 15 59 15 8 0 15 5 15 10 0 6 11 10 24 10 14 0 28 5 31
10 3 6 17 10 30 10 27 0 75 20 75 31 0 4 19 17 43 28 23 11 61 38 85 60 24 22
59 45 78 51 19 6 34 18 34 25 0 8 15 21 34 30 19 9 37 23 40 31 3 8 15 14 26
14 11 0 20 7 20 15 0 13 20 38 103 127 15 16 27 34 27 39 0 5 5 9 10 9 6 0 10
6 10 13 0 8 11 20 25 27 14 7 25 20 25 28 0 8 11 23 25 34 20 16 23 23 15 39
-9 16 -7 19 9 19 14 0 19 -5 15 -15 -7 -18 14 -47 27 -39 5 3 5 13 -1 24 -5
10 -10 27 -10 38 0 15 5 18 25 14 27 -5 35 12 10 22 -9 3 -12 12 -8 22 5 14
16 16 70 11 74 -7 99 -19 109 -49 10 -32 25 -39 50 -23 32 21 64 9 64 -25 0
-16 3 -36 7 -46 5 -13 3 -15 -8 -10 -8 4 -3 -1 11 -13 21 -17 23 -23 14 -39
-7 -10 -10 -30 -7 -45 3 -17 -2 -33 -16 -48 -18 -20 -19 -24 -6 -49 12 -23 13
-49 6 -92 0 -3 -10 -4 -21 -1 -21 6 -29 -20 -10 -32 6 -3 10 -13 10 -22 0 -15
-2 -14 -18 0 -35 32 -63 18 -76 -37 -4 -16 -17 -37 -29 -46 -20 -17 -21 -20
-6 -37 31 -36 34 -47 11 -41 -17 5 -22 2 -22 -13 0 -10 7 -19 15 -19 18 0 19
-9 0 -34 -7 -10 -18 -15 -24 -12 -14 9 -41 66 -41 86 0 13 -6 16 -24 13 -13
-3 -27 0 -31 7 -9 15 -36 -6 -29 -24 3 -7 -15 -25 -41 -41 -25 -16 -45 -35
-45 -42 0 -7 -3 -13 -8 -13 -13 0 -52 -97 -46 -114 4 -10 1 -16 -9 -16 -14 0
-28 -32 -32 -73 -1 -9 -14 -28 -29 -42 -30 -28 -34 -55 -8 -55 10 0 23 -5 30
-12 9 -9 12 -9 12 -1 0 7 -4 14 -10 18 -21 13 3 35 40 35 37 0 45 8 54 55 7
33 19 44 39 36 12 -5 28 -7 35 -5 7 1 8 0 2 -3 -5 -2 -10 -10 -10 -17 0 -7
-11 -25 -25 -40 l-24 -26 24 -37 c16 -22 25 -50 25 -74 0 -35 -2 -38 -27 -36
-19 1 -30 -5 -38 -20 -11 -21 -11 -21 -23 -2 -7 10 -12 28 -12 39 0 11 -4 20
-10 20 -5 0 -10 -12 -10 -27 0 -36 -14 -58 -30 -48 -8 5 -11 4 -7 -2 8 -12
-27 -106 -41 -111 -30 -10 -48 99 -27 166 5 14 3 22 -4 22 -6 0 -11 -6 -11
-13 0 -16 -23 -67 -30 -67 -13 0 -3 -91 13 -108 21 -23 23 -72 2 -72 -8 0 -20
-10 -26 -22 -11 -21 -12 -21 -25 -3 -18 25 -18 49 1 65 8 7 15 23 15 35 0 13
-7 25 -15 29 -9 3 -15 0 -15 -8 0 -8 -9 -16 -20 -19 -27 -7 -26 -51 1 -78 19
-19 20 -25 10 -41 -10 -16 -9 -26 4 -54 8 -18 23 -38 33 -43 15 -9 14 -10 -5
-11 -14 0 -23 -6 -23 -16 0 -26 -43 -12 -58 19 -7 15 -17 27 -23 27 -16 0 -10
-19 11 -37 22 -20 26 -38 8 -49 -6 -4 -19 3 -30 15 -20 26 -25 19 -30 -39 -3
-33 -5 -35 -35 -32 -25 2 -33 -1 -38 -18 -4 -12 -2 -27 4 -34 17 -21 11 -86
-9 -86 -9 0 -21 -5 -27 -11 -20 -20 -27 30 -8 51 21 23 12 40 -20 40 -27 0
-62 -43 -57 -71 2 -9 -9 -29 -23 -43 -27 -27 -65 -35 -65 -14 0 7 -10 -2 -22
-19 -29 -41 -36 -41 -40 -1 -2 21 -9 34 -20 36 -13 3 -17 -6 -20 -40 -2 -31
-8 -44 -20 -46 -15 -3 -18 4 -18 35 0 40 -22 84 -35 71 -6 -6 -20 -102 -24
-170 -1 -5 -8 -8 -16 -8 -10 0 -15 10 -15 29 0 39 -9 61 -26 61 -10 0 -14 -14
-14 -53 0 -59 -6 -72 -27 -56 -10 9 -13 8 -13 -1 0 -8 -2 -11 -5 -8 -3 2 2 18
10 35 8 17 12 38 9 48 -6 15 -9 15 -21 -6 -12 -22 -13 -22 -7 15 6 36 5 39
-14 34 -15 -4 -23 0 -28 14 -10 32 -29 14 -27 -26 2 -33 1 -35 -13 -22 -8 9
-18 32 -21 51 -8 47 -21 53 -34 16 -8 -24 -13 -28 -23 -18 -7 6 -13 18 -12 26
1 7 -5 16 -11 18 -7 3 -13 -2 -13 -10 0 -7 -11 -19 -24 -25 -20 -9 -25 -8 -30
4 -3 9 -3 20 0 26 4 6 2 13 -4 17 -6 3 -13 19 -16 34 -2 14 -7 31 -11 36 -8
14 -35 2 -35 -15 0 -21 -11 -17 -43 14 -26 25 -29 26 -38 10 -13 -24 -35 -23
-53 3 -9 13 -28 23 -46 24 -24 2 -31 -2 -36 -21 -7 -27 -14 -30 -32 -12 -9 9
-16 5 -32 -14 -25 -33 -55 -30 -55 4 0 27 -24 78 -36 78 -4 0 -11 -5 -14 -11
-5 -7 -13 -4 -26 7 -15 14 -21 14 -34 4 -13 -10 -15 -9 -15 9 0 27 -16 27 -30
1 -8 -14 -8 -26 0 -41 13 -23 6 -69 -10 -69 -6 0 -10 18 -10 40 0 29 -4 40
-15 40 -8 0 -15 -9 -15 -21 0 -11 -5 -30 -11 -41 -11 -20 -11 -19 -28 8 -10
16 -21 41 -24 57 -7 27 -27 38 -27 15 0 -7 11 -40 25 -73 26 -63 32 -105 15
-105 -5 0 -10 -15 -10 -32 0 -51 -12 -62 -39 -39 -12 11 -18 22 -13 25 17 10
20 56 5 71 -9 9 -11 24 -7 40 9 37 -14 78 -41 71 -23 -6 -49 7 -51 26 -3 40
-4 41 -19 28 -18 -15 -42 -3 -26 13 17 17 14 50 -3 44 -12 -5 -13 -1 -4 26 9
23 8 32 0 35 -7 2 -12 15 -12 29 0 32 -34 28 -38 -4 -2 -13 -15 -31 -28 -42
-21 -17 -29 -18 -51 -8 -23 10 -24 12 -7 24 19 14 19 14 -12 18 -14 1 -21 -3
-20 -14 1 -10 -8 -17 -22 -19 -22 -3 -23 -1 -17 27 6 27 4 31 -14 31 -12 0
-21 -4 -21 -10 0 -5 -7 -10 -15 -10 -17 0 -19 18 -5 54 20 54 -18 75 -58 33
-17 -18 -19 -26 -10 -35 9 -9 9 -15 1 -23 -8 -8 -14 -5 -23 11 -7 14 -19 20
-33 18 -28 -4 -51 35 -37 62 6 10 10 26 10 34 0 9 9 25 20 36 22 22 27 55 8
47 -38 -14 -58 -18 -57 -10 4 24 -4 33 -31 33 -27 0 -30 3 -30 31 0 32 1 32
-45 13 -13 -5 -35 52 -35 89 0 23 -3 27 -22 22 -37 -9 -51 7 -37 41 6 16 15
44 19 62 8 31 7 32 -25 32 -18 0 -35 -6 -38 -12 -2 -7 -3 17 -1 55 2 37 1 67
-2 67 -3 0 -15 -5 -26 -11 -20 -11 -20 -10 -12 37 11 65 9 137 -5 142 -6 2
-11 12 -11 22 0 10 -6 20 -12 23 -10 3 -10 9 0 27 19 31 2 48 -33 32 l-26 -12
8 38 c4 20 8 58 7 84 -1 33 3 49 14 53 12 4 12 8 2 21 -10 11 -15 12 -21 3
-12 -19 -21 25 -10 52 l10 24 0 -23 c1 -37 19 -16 21 25 5 99 0 147 -15 156
-19 10 -20 51 -1 67 18 14 10 37 -16 46 -18 5 -18 7 -3 23 9 11 13 25 9 35 -4
11 5 31 26 57 33 41 32 53 -5 62 -15 3 -12 5 9 6 20 1 27 5 23 16 -4 8 5 22
21 34 l27 21 -25 19 c-23 18 -23 20 -5 20 11 0 38 4 60 9 38 8 42 6 78 -29 20
-21 37 -44 37 -51z m2784 -154 c-17 -9 -31 -11 -37 -5 -16 16 1 28 33 23 l31
-4 -27 -14z m-80 -39 c-4 -8 -10 -15 -15 -15 -5 0 -9 7 -9 15 0 8 7 15 15 15
9 0 12 -6 9 -15z m-2379 -94 c-3 -12 -11 -19 -16 -16 -5 4 -3 14 3 25 15 24
22 19 13 -9z m185 -47 c0 -25 -40 -85 -52 -78 -12 8 -3 59 14 79 17 19 38 19
38 -1z m88 -44 c31 -19 43 -40 22 -40 -5 0 -10 -5 -10 -12 0 -14 -30 -48 -43
-48 -5 0 -7 14 -3 33 4 25 3 28 -5 15 -24 -42 -47 -2 -24 43 18 34 20 35 63 9z
m249 -36 c-3 -3 -12 -4 -19 -1 -8 3 -5 6 6 6 11 1 17 -2 13 -5z m-47 -44 c0
-5 -2 -10 -4 -10 -3 0 -8 5 -11 10 -3 6 -1 10 4 10 6 0 11 -4 11 -10z m1995
-400 c0 -22 -29 -18 -33 3 -3 14 1 18 15 15 10 -2 18 -10 18 -18z m-2955 -55
c0 -22 -37 -57 -43 -40 -6 14 19 55 34 55 5 0 9 -7 9 -15z m-30 -72 c0 -5 -5
-15 -10 -23 -8 -12 -10 -11 -10 8 0 12 5 22 10 22 6 0 10 -3 10 -7z m2916 -70
c-11 -11 -19 6 -11 24 8 17 8 17 12 0 3 -10 2 -21 -1 -24z m78 -19 c3 -9 6
-28 6 -42 -1 -26 -1 -26 -15 -8 -16 22 -20 66 -6 66 5 0 12 -7 15 -16z m-3607
-436 c-9 -59 -18 -92 -29 -105 -5 -7 -10 -36 -11 -65 -1 -29 -6 -57 -11 -61
-8 -6 -7 -10 2 -14 6 -2 12 -14 12 -25 0 -15 -5 -19 -20 -15 -17 4 -20 0 -20
-31 0 -21 -7 -46 -15 -56 -15 -19 -15 -19 -15 2 0 12 -5 22 -10 22 -7 0 -7 6
0 19 5 11 17 48 26 83 8 35 22 88 29 118 8 30 19 64 24 75 5 11 15 35 23 53 7
17 15 32 17 32 2 0 1 -15 -2 -32z m3376 -82 c-3 -4 -9 -2 -14 5 -13 22 -11 31
5 17 8 -7 12 -17 9 -22z m-57 9 c4 -8 4 -22 0 -30 -7 -19 -36 -8 -36 14 0 32
26 43 36 16z m-3356 -250 c0 -14 -4 -25 -10 -25 -11 0 -14 33 -3 43 11 11 13
8 13 -18z m4080 11 c0 -3 -4 -8 -10 -11 -5 -3 -10 -1 -10 4 0 6 5 11 10 11 6
0 10 -2 10 -4z m-2820 -26 c0 -5 -5 -10 -11 -10 -5 0 -7 5 -4 10 3 6 8 10 11
10 2 0 4 -4 4 -10z m500 -31 c0 -11 -4 -17 -10 -14 -5 3 -10 13 -10 21 0 8 5
14 10 14 6 0 10 -9 10 -21z m2304 6 c-4 -8 -10 -15 -15 -15 -4 0 -6 7 -3 15 4
8 10 15 15 15 4 0 6 -7 3 -15z m-2097 -97 c-3 -7 -5 -2 -5 12 0 14 2 19 5 13
2 -7 2 -19 0 -25z m-2042 -38 c3 -5 -1 -10 -10 -10 -9 0 -13 5 -10 10 3 6 8
10 10 10 2 0 7 -4 10 -10z m155 -835 c0 -18 -5 -25 -20 -25 -20 0 -28 28 -13
43 15 16 33 6 33 -18z m-80 -59 c0 -18 -14 -34 -26 -29 -21 8 -17 33 6 33 11
0 20 -2 20 -4z"/>
<path d="M4742 13631 c-10 -6 -10 -10 3 -21 18 -15 42 0 31 19 -8 13 -16 14
-34 2z"/>
<path d="M5080 13461 c0 -6 5 -13 10 -16 6 -3 10 1 10 9 0 9 -4 16 -10 16 -5
0 -10 -4 -10 -9z"/>
<path d="M6867 12593 c-10 -9 -8 -33 2 -33 5 0 11 9 14 20 5 20 -3 26 -16 13z"/>
<path d="M6960 12275 c0 -22 5 -25 33 -25 22 0 28 -3 18 -9 -19 -12 -5 -30 20
-24 12 4 18 11 15 20 -3 8 -6 21 -6 28 0 11 -48 35 -71 35 -5 0 -9 -11 -9 -25z"/>
<path d="M6990 12181 c-24 -47 1 -101 47 -101 32 0 45 47 20 72 -7 7 -16 21
-20 31 -9 23 -34 22 -47 -2z"/>
<path d="M7066 12052 c-3 -6 -1 -14 5 -17 15 -10 25 3 12 16 -7 7 -13 7 -17 1z"/>
<path d="M3008 11560 c-41 -7 -85 -32 -110 -64 l-18 -21 0 29 c0 21 -4 27 -16
22 -9 -3 -21 -6 -29 -6 -7 0 -15 -9 -18 -20 -5 -18 -8 -19 -31 -9 -21 10 -29
8 -53 -13 -15 -13 -29 -31 -31 -38 -6 -26 -62 -44 -62 -20 0 6 5 10 10 10 6 0
10 7 10 16 0 19 -32 12 -73 -17 -15 -11 -46 -28 -70 -38 -48 -21 -162 -133
-190 -187 -10 -20 -17 -45 -16 -57 1 -12 -2 -30 -6 -40 -5 -13 0 -26 16 -43
19 -20 21 -27 10 -34 -9 -5 -11 -14 -6 -26 14 -29 12 -48 -5 -61 -13 -10 -13
-14 5 -27 20 -15 19 -15 -13 -43 -57 -48 -41 -128 23 -115 34 6 32 -9 -5 -37
-37 -27 -31 -41 16 -41 40 0 44 -23 5 -28 -16 -3 -19 -7 -12 -15 5 -7 10 -16
12 -22 2 -11 38 -8 54 5 14 12 39 -5 31 -19 -4 -6 -14 -11 -22 -11 -14 0 -18
-12 -14 -40 3 -22 4 -22 45 -14 33 6 36 9 34 38 -2 23 5 39 28 64 17 17 36 32
42 32 6 0 17 11 23 25 6 14 17 25 23 25 7 0 20 10 28 23 13 21 22 23 74 21 52
-2 61 1 83 24 43 45 82 61 130 52 30 -5 50 -3 71 7 16 8 36 12 44 9 8 -3 17
-1 20 4 4 6 17 7 31 4 13 -3 30 -2 37 4 21 16 102 20 136 6 23 -10 39 -10 61
-2 23 8 35 7 53 -4 30 -20 77 -31 77 -18 0 18 35 11 53 -10 10 -12 22 -18 27
-15 13 8 13 -5 0 -25 -10 -17 -17 -17 -422 -29 -10 -1 -18 -8 -18 -16 0 -8 -9
-15 -20 -15 -11 0 -20 5 -20 10 0 6 -7 10 -15 10 -8 0 -15 -4 -15 -10 0 -19
-39 -10 -45 10 -3 11 -12 20 -18 20 -19 0 -68 -57 -62 -72 5 -11 -1 -14 -25
-10 -21 3 -36 -1 -48 -14 -28 -30 -62 -46 -75 -36 -12 10 -31 -2 -35 -21 -5
-24 -62 -71 -62 -50 0 3 -13 -6 -30 -22 -16 -15 -28 -31 -27 -34 2 -6 -35 -51
-79 -97 -12 -13 -19 -26 -15 -30 3 -5 -6 0 -21 9 -37 23 -42 22 -72 -17 l-26
-35 27 -13 c33 -16 38 -56 11 -82 -19 -18 -19 -18 3 -42 l22 -23 -27 -7 c-14
-3 -26 -10 -26 -15 0 -5 -6 -9 -14 -9 -8 0 -16 -7 -19 -14 -5 -11 5 -17 39
-22 34 -5 44 -11 44 -25 0 -16 8 -18 57 -18 61 1 103 13 115 32 6 9 8 9 8 0 0
-6 -4 -15 -10 -18 -5 -3 -10 -20 -10 -37 0 -16 -7 -42 -16 -58 -16 -26 -16
-28 6 -50 18 -18 29 -21 57 -15 42 8 101 -10 129 -40 15 -16 29 -21 48 -18 21
4 26 2 26 -16 0 -18 -6 -21 -37 -21 -20 0 -34 -3 -30 -6 3 -3 50 -6 104 -6 57
-1 111 -7 130 -14 24 -11 32 -11 35 -2 5 13 116 19 123 7 3 -3 -13 -9 -34 -13
-21 -3 -44 -12 -50 -20 -7 -8 -27 -22 -46 -31 -19 -9 -35 -22 -35 -30 0 -17
240 -10 380 12 52 8 124 17 160 20 36 2 69 9 75 14 5 5 22 9 37 9 18 0 28 5
28 15 0 8 8 15 18 15 9 0 26 7 36 15 10 8 23 12 29 8 6 -3 7 -1 3 5 -4 7 -2
12 3 12 6 0 33 16 60 35 26 19 53 35 59 35 5 0 12 6 15 14 3 7 19 16 36 19 25
5 31 11 31 32 0 20 8 30 38 43 l37 17 -35 3 c-19 2 -52 -2 -74 -8 -27 -8 -42
-8 -49 -1 -10 10 -8 19 23 81 8 17 76 26 93 12 11 -9 93 -1 144 14 26 7 43
-20 24 -39 -16 -16 -14 -47 3 -47 8 0 16 -5 18 -12 3 -8 11 -5 25 8 12 10 38
33 58 49 20 17 53 47 74 68 21 20 48 37 60 37 25 0 71 45 71 70 0 9 3 20 7 24
8 7 13 58 13 122 0 18 7 37 15 44 8 7 15 25 15 41 0 19 5 29 15 29 8 0 15 7
15 15 0 8 -6 15 -14 15 -19 0 -34 43 -40 120 -8 88 -7 143 4 154 4 4 8 -8 7
-27 -1 -21 6 -44 16 -55 9 -10 17 -29 17 -41 0 -17 3 -19 13 -10 9 9 11 26 6
58 -4 27 -2 54 4 66 10 19 10 19 18 -3 8 -22 35 -39 45 -29 6 6 -19 85 -41
127 -8 16 -15 52 -15 80 0 43 -3 50 -20 50 -11 0 -20 6 -20 13 0 24 13 27 27
7 8 -11 18 -20 24 -20 20 0 8 29 -26 63 -36 36 -45 64 -21 73 22 8 -35 60 -82
75 -57 17 -78 0 -39 -31 31 -25 35 -40 10 -40 -25 1 -53 24 -53 44 0 9 -6 16
-14 16 -7 0 -20 9 -27 20 -10 15 -36 24 -99 35 -65 11 -89 20 -102 37 -14 19
-24 22 -77 20 -49 -2 -61 0 -61 13 0 8 6 15 13 15 26 0 -19 20 -46 20 -15 0
-36 5 -47 12 -15 9 -34 10 -82 1 -35 -6 -71 -14 -80 -18 -13 -5 -18 -2 -18 8
0 8 14 20 31 26 17 6 28 15 24 21 -9 15 -46 12 -59 -5 -16 -22 -82 -31 -102
-15 -16 14 -126 15 -154 1 -25 -13 -93 -23 -86 -13 3 5 0 17 -7 26 -11 15 -16
15 -65 -3 -55 -21 -77 -19 -86 4 -7 19 12 30 27 16 9 -7 21 -3 42 14 27 21 28
24 12 31 -10 3 -23 2 -29 -4 -5 -5 -27 -8 -49 -5 -25 4 -51 0 -74 -12 -20 -9
-43 -14 -51 -11 -17 7 -19 43 -1 49 39 14 -42 27 -105 17z m219 -126 c-3 -3
-12 -4 -19 -1 -8 3 -5 6 6 6 11 1 17 -2 13 -5z m1103 -204 c0 -5 -4 -10 -10
-10 -5 0 -10 5 -10 10 0 6 5 10 10 10 6 0 10 -4 10 -10z m210 -114 c0 -11 -19
-15 -25 -6 -3 5 1 10 9 10 9 0 16 -2 16 -4z m-1190 -440 c0 -13 -7 -30 -16
-37 -13 -11 -17 -10 -25 4 -12 21 -33 22 -49 2 -17 -21 -36 -19 -59 7 -33 34
-11 48 75 48 71 0 74 -1 74 -24z m1130 -6 c0 -5 -4 -10 -10 -10 -5 0 -10 5
-10 10 0 6 5 10 10 10 6 0 10 -4 10 -10z m-1331 -22 c5 -13 7 -26 5 -29 -6
-10 -52 2 -65 17 -9 11 -6 16 12 23 35 14 39 13 48 -11z m291 7 c0 -8 -4 -15
-10 -15 -5 0 -10 7 -10 15 0 8 5 15 10 15 6 0 10 -7 10 -15z m-104 -156 c3 -6
1 -16 -5 -22 -9 -9 -14 -8 -21 3 -5 8 -10 18 -10 23 0 11 28 8 36 -4z m-721
-108 c3 -5 1 -12 -5 -16 -5 -3 -10 1 -10 9 0 18 6 21 15 7z m1575 -50 c0 5 5
9 10 9 6 0 9 -12 8 -27 -3 -23 4 -31 41 -51 l43 -25 -28 -27 c-31 -29 -44 -30
-44 -2 0 10 -22 39 -50 65 -27 26 -50 52 -50 56 0 5 16 5 35 1 20 -4 35 -4 35
1z m-820 -11 c0 -5 -4 -10 -10 -10 -5 0 -10 5 -10 10 0 6 5 10 10 10 6 0 10
-4 10 -10z m-875 -60 c-6 -10 -45 -1 -45 10 0 13 24 18 37 8 7 -6 11 -14 8
-18z m1945 -16 c0 -8 -9 -14 -20 -14 -22 0 -26 10 -8 28 13 13 28 7 28 -14z
m-1008 -132 c28 -7 40 -7 48 3 5 6 24 12 41 13 23 1 29 -3 25 -14 -3 -9 -6
-24 -6 -35 0 -30 -30 -36 -49 -10 -11 14 -23 20 -34 15 -9 -3 -15 -10 -12 -14
3 -4 -6 -11 -20 -14 -20 -5 -25 -13 -25 -36 0 -38 -10 -38 -50 0 -38 35 -44
37 -35 11 10 -33 -5 -73 -26 -68 -10 3 -20 -1 -23 -9 -6 -17 -32 -19 -41 -3
-4 5 -1 18 7 27 20 23 21 74 3 98 -8 11 -15 14 -15 7 0 -7 -6 -13 -14 -13 -8
0 -16 6 -19 13 -3 9 -9 9 -27 -1 -37 -22 -60 -23 -60 -3 0 24 26 30 128 27 61
-2 85 1 94 11 12 15 39 14 110 -5z m165 -14 c-3 -8 -6 -5 -6 6 -1 11 2 17 5
13 3 -3 4 -12 1 -19z m208 2 c3 -5 -1 -10 -9 -10 -9 0 -16 5 -16 10 0 6 4 10
9 10 6 0 13 -4 16 -10z m-45 -15 c0 -8 -4 -15 -10 -15 -5 0 -10 7 -10 15 0 8
5 15 10 15 6 0 10 -7 10 -15z m-860 -65 c0 -5 -4 -10 -9 -10 -6 0 -13 5 -16
10 -3 6 1 10 9 10 9 0 16 -4 16 -10z m146 -15 c-5 -19 -3 -23 9 -19 9 4 24 -1
34 -10 10 -9 21 -13 24 -9 4 3 7 -4 7 -16 0 -12 -4 -20 -9 -17 -5 3 -14 -1
-21 -9 -19 -23 -39 -18 -50 11 -13 34 -13 94 1 94 7 0 9 -10 5 -25z m156 -40
c-3 -21 -10 -35 -18 -35 -17 0 -18 8 -1 43 17 37 24 34 19 -8z m228 5 c-20
-13 -40 -13 -40 0 0 6 12 10 28 10 21 0 24 -2 12 -10z m8 -52 c4 -22 -24 -30
-78 -19 -25 5 -37 9 -27 10 10 1 25 8 34 17 20 19 67 14 71 -8z m-85 -95 c-7
-2 -21 -2 -30 0 -10 3 -4 5 12 5 17 0 24 -2 18 -5z"/>
<path d="M3351 11534 c0 -11 3 -14 6 -6 3 7 2 16 -1 19 -3 4 -6 -2 -5 -13z"/>
<path d="M3418 11493 c7 -3 16 -2 19 1 4 3 -2 6 -13 5 -11 0 -14 -3 -6 -6z"/>
<path d="M6362 11399 c2 -7 -11 -15 -28 -19 -43 -9 -54 -18 -47 -36 5 -13 2
-14 -13 -6 -43 23 -102 32 -131 21 -15 -6 -41 -12 -57 -13 -15 -1 -36 -12 -45
-24 -12 -16 -28 -21 -71 -23 -30 -1 -67 1 -81 5 -21 6 -32 2 -54 -20 -23 -23
-30 -25 -46 -15 -14 8 -25 8 -39 1 -10 -5 -32 -10 -47 -10 -16 0 -34 -5 -40
-11 -13 -13 -33 -4 -33 17 0 21 -15 17 -33 -8 -12 -19 -18 -21 -28 -10 -23 21
-49 15 -49 -13 0 -15 -6 -25 -14 -25 -7 0 -19 -7 -26 -15 -7 -8 -20 -15 -29
-15 -14 0 -14 2 -1 10 20 13 4 13 -21 -1 -14 -7 -18 -16 -14 -29 6 -17 3 -19
-24 -14 -24 5 -31 3 -31 -10 0 -9 -5 -16 -11 -16 -6 0 -9 -7 -6 -15 4 -8 2
-17 -2 -20 -5 -2 -11 4 -14 15 -3 11 -13 20 -22 20 -16 0 -17 -7 -12 -61 7
-59 6 -60 -16 -53 -36 12 -87 12 -87 -1 0 -7 -9 -20 -20 -30 -19 -18 -20 -17
-20 3 0 22 -14 30 -24 13 -3 -4 -26 -14 -50 -21 -33 -9 -43 -16 -39 -27 4 -10
14 -13 34 -9 27 5 29 3 29 -24 0 -17 -4 -30 -9 -30 -5 0 -12 -7 -15 -16 -9
-24 4 -84 17 -81 6 1 13 -8 15 -21 3 -18 8 -21 23 -17 18 6 19 3 13 -37 -4
-24 -13 -47 -21 -51 -21 -13 15 -38 43 -31 12 3 25 1 29 -5 4 -7 -6 -14 -24
-17 -35 -7 -39 -23 -14 -65 15 -25 15 -33 5 -50 -12 -19 -11 -20 21 -14 41 8
52 -3 68 -70 6 -28 18 -67 25 -87 8 -21 10 -38 5 -38 -5 0 -11 -9 -14 -20 -3
-11 -1 -20 5 -20 5 0 7 -23 4 -57 -2 -32 -2 -48 0 -35 l5 23 22 -28 c18 -22
22 -41 22 -100 1 -50 6 -77 16 -90 9 -10 26 -43 39 -73 35 -84 65 -100 90 -47
17 36 57 49 72 23 5 -9 16 -16 23 -16 8 0 15 -3 15 -8 0 -10 41 -35 47 -28 3
3 0 12 -6 20 -10 12 -8 19 13 37 14 13 26 32 26 44 0 11 6 33 13 48 10 22 18
27 42 25 25 -3 30 0 28 18 -2 21 1 22 125 20 106 -1 132 -4 155 -20 21 -14 48
-19 115 -20 48 -1 97 -7 109 -14 12 -7 29 -12 38 -12 8 0 27 -7 40 -16 16 -10
39 -15 65 -12 44 4 59 -12 29 -30 -22 -14 -79 -4 -86 15 -4 11 -14 6 -40 -19
-27 -26 -37 -30 -51 -22 -9 6 -17 17 -18 25 0 8 -2 22 -2 32 -1 10 -7 15 -12
12 -6 -4 -8 -10 -5 -15 9 -14 -16 -23 -28 -11 -6 6 -21 11 -34 11 -16 0 -23 6
-23 20 0 24 -16 26 -38 4 -11 -12 -27 -15 -58 -11 -37 4 -42 2 -41 -14 1 -11
5 -19 9 -19 4 0 8 -8 8 -17 -1 -16 -2 -16 -16 2 -8 11 -23 20 -32 20 -11 0
-17 8 -17 25 0 21 -4 25 -26 22 -15 -2 -45 7 -67 18 -39 21 -62 20 -62 -1 0
-5 6 -9 14 -9 8 0 30 -16 49 -35 19 -19 43 -36 54 -36 37 -3 44 -4 51 -14 4
-5 16 -15 26 -21 31 -16 31 -34 1 -34 -14 0 -33 -7 -42 -15 -17 -18 -44 -16
-50 2 -3 7 8 18 24 24 15 6 24 13 18 14 -51 13 -102 30 -111 37 -15 11 -24 0
-24 -29 0 -22 3 -24 30 -18 26 6 29 4 23 -12 -4 -10 -14 -23 -22 -30 -13 -9
-9 -12 23 -18 27 -6 34 -10 24 -17 -8 -5 -3 -6 15 -2 19 4 27 2 28 -7 0 -13
28 -28 219 -118 36 -17 73 -31 83 -31 10 0 30 -6 45 -14 16 -8 57 -19 92 -26
36 -6 79 -15 95 -20 17 -6 73 -14 125 -19 52 -5 116 -12 143 -15 47 -6 47 -6
47 24 0 23 5 30 19 30 11 0 21 5 23 10 2 6 28 13 58 15 30 2 98 11 150 19 52
8 98 12 103 9 4 -2 5 7 1 21 -4 18 -2 26 6 26 19 0 50 40 50 65 0 38 -21 84
-41 90 -35 11 -14 30 30 27 35 -2 41 0 41 18 0 17 4 19 25 14 15 -4 25 -2 25
4 0 6 12 17 27 24 15 7 30 24 33 37 4 17 15 27 38 33 18 5 32 12 32 17 0 5 10
11 21 14 17 5 20 11 15 31 -5 19 -2 26 8 26 9 0 17 13 20 33 13 76 10 117 -8
117 -12 0 -26 20 -26 36 0 3 11 9 25 14 27 10 32 34 14 74 -9 19 -8 29 4 46
13 19 14 26 0 57 -8 20 -21 42 -29 50 -18 19 -18 33 1 33 8 0 15 -8 15 -17 0
-15 2 -16 9 -3 6 8 8 17 5 22 -3 4 1 45 8 92 10 73 10 87 -4 108 -10 16 -13
30 -7 40 10 18 5 68 -10 96 -6 12 -11 30 -11 41 0 69 -158 261 -232 281 -21 6
-38 14 -38 18 0 14 -120 85 -208 124 -87 38 -122 46 -122 28 0 -5 -7 -10 -15
-10 -8 0 -15 4 -15 9 0 4 -24 12 -52 16 -69 9 -80 9 -101 0 -13 -5 -16 -4 -11
9 8 21 -10 21 -27 0 -17 -20 -100 -15 -127 8 -22 20 -123 34 -120 17z m-227
-119 c3 -5 1 -10 -4 -10 -6 0 -11 5 -11 10 0 6 2 10 4 10 3 0 8 -4 11 -10z
m-905 -305 c0 -8 -9 -15 -20 -15 -20 0 -26 11 -13 23 12 13 33 7 33 -8z m-23
-92 c-2 -25 -32 -51 -44 -39 -9 9 10 55 25 59 10 3 18 5 19 6 1 0 1 -11 0 -26z
m1260 -259 c-9 -9 -28 6 -21 18 4 6 10 6 17 -1 6 -6 8 -13 4 -17z m-147 -78
c0 -2 3 -11 6 -19 4 -12 0 -14 -15 -10 -24 6 -29 33 -6 33 8 0 15 -2 15 -4z
m160 -36 c0 -5 -4 -10 -10 -10 -5 0 -10 5 -10 10 0 6 5 10 10 10 6 0 10 -4 10
-10z m-233 -6 c-3 -3 -12 -4 -19 -1 -8 3 -5 6 6 6 11 1 17 -2 13 -5z m803 -34
c0 -5 -7 -7 -15 -4 -8 4 -15 8 -15 10 0 2 7 4 15 4 8 0 15 -4 15 -10z m-716
-119 c7 -10 -3 -41 -13 -41 -17 1 -33 20 -28 34 7 17 32 22 41 7z m-369 -167
c24 -16 90 -114 97 -144 4 -21 -48 -14 -89 12 -23 13 -33 27 -33 44 0 19 -10
29 -45 46 -42 21 -52 45 -14 35 10 -3 23 1 30 9 15 18 24 18 54 -2z m-220 -54
c0 -9 -11 -16 -27 -18 -20 -2 -28 1 -28 12 0 8 6 17 13 19 21 9 42 2 42 -13z
m943 -202 c-7 -20 -48 -23 -48 -4 0 11 9 16 26 16 16 0 24 -5 22 -12z m-115
-15 c-7 -2 -19 -2 -25 0 -7 3 -2 5 12 5 14 0 19 -2 13 -5z m-339 -69 c10 -4
16 -18 16 -39 0 -40 -7 -46 -40 -32 -20 8 -22 11 -7 14 21 5 23 23 3 23 -21 0
-31 21 -15 31 17 10 23 11 43 3z m337 -44 c5 0 9 -7 9 -15 0 -8 -4 -15 -9 -15
-12 0 -21 27 -20 58 l2 27 4 -27 c2 -16 9 -28 14 -28z m-156 0 c16 -16 25 -33
21 -37 -4 -4 -11 -1 -15 6 -6 8 -29 14 -62 15 -59 1 -75 19 -32 34 45 16 57
14 88 -18z m-415 -10 c-17 -15 -27 -17 -34 -10 -13 13 9 30 38 30 17 0 17 -2
-4 -20z m490 -6 c0 -8 -4 -12 -10 -9 -5 3 -10 10 -10 16 0 5 5 9 10 9 6 0 10
-7 10 -16z m-365 -24 c13 -5 14 -9 5 -9 -8 0 -24 4 -35 9 -13 5 -14 9 -5 9 8
0 24 -4 35 -9z m95 -45 l25 -14 -27 -1 c-32 0 -58 9 -58 21 0 13 32 10 60 -6z"/>
<path d="M2110 11350 c0 -5 5 -10 10 -10 6 0 10 5 10 10 0 6 -4 10 -10 10 -5
0 -10 -4 -10 -10z"/>
<path d="M5427 11235 c-4 -8 -2 -17 3 -20 6 -4 10 3 10 14 0 25 -6 27 -13 6z"/>
<path d="M4586 11211 c-7 -11 22 -23 36 -15 6 4 5 10 -3 15 -18 11 -26 11 -33
0z"/>
<path d="M4631 11164 c0 -11 3 -14 6 -6 3 7 2 16 -1 19 -3 4 -6 -2 -5 -13z"/>
<path d="M4650 11090 c0 -5 5 -10 10 -10 6 0 10 5 10 10 0 6 -4 10 -10 10 -5
0 -10 -4 -10 -10z"/>
<path d="M5037 10863 c-4 -3 -7 -20 -6 -37 l1 -31 8 35 c9 36 8 45 -3 33z"/>
<path d="M2830 10790 c0 -13 11 -13 30 0 12 8 11 10 -7 10 -13 0 -23 -4 -23
-10z"/>
<path d="M4655 10739 c-4 -6 -5 -12 -2 -15 2 -3 7 2 10 11 7 17 1 20 -8 4z"/>
<path d="M4650 10696 c0 -9 5 -16 10 -16 6 0 10 4 10 9 0 6 -4 13 -10 16 -5 3
-10 -1 -10 -9z"/>
<path d="M5035 10640 c-3 -5 1 -10 10 -10 9 0 13 5 10 10 -3 6 -8 10 -10 10
-2 0 -7 -4 -10 -10z"/>
<path d="M2317 10593 c-13 -12 -7 -33 8 -33 8 0 15 9 15 20 0 20 -11 26 -23
13z"/>
<path d="M2385 10497 c-4 -10 -3 -23 3 -29 14 -14 21 3 12 27 -7 19 -8 19 -15
2z"/>
<path d="M3925 10120 c-3 -5 1 -10 10 -10 9 0 13 5 10 10 -3 6 -8 10 -10 10
-2 0 -7 -4 -10 -10z"/>
<path d="M5688 9868 c-22 -22 -22 -28 -3 -28 16 0 40 36 28 43 -5 2 -16 -4
-25 -15z"/>
<path d="M5390 9303 c0 -25 15 -38 25 -22 4 6 0 18 -9 27 -15 15 -16 15 -16
-5z"/>
<path d="M5441 9294 c0 -11 3 -14 6 -6 3 7 2 16 -1 19 -3 4 -6 -2 -5 -13z"/>
<path d="M5446 9264 c-19 -18 -19 -24 -7 -57 11 -29 40 -42 55 -26 8 8 8 13
-1 16 -10 4 -10 10 2 26 13 19 13 23 -2 39 -20 22 -27 22 -47 2z"/>
<path d="M5571 9229 c-7 -16 -20 -29 -28 -29 -10 0 -13 -5 -8 -17 21 -53 26
-87 16 -111 -10 -20 -9 -28 4 -42 8 -9 13 -24 9 -33 -7 -20 14 -116 30 -137
19 -24 36 -69 36 -94 0 -13 9 -33 20 -46 12 -14 20 -39 21 -64 2 -73 11 -91
47 -91 19 -1 37 -8 47 -20 17 -24 20 -65 3 -65 -6 0 -3 -9 8 -21 10 -11 19
-32 20 -47 1 -29 27 -40 53 -23 12 8 12 12 2 25 -11 13 -11 19 -1 31 10 13 10
19 -4 33 -20 23 -20 38 -2 45 8 3 18 22 22 41 5 29 2 41 -20 67 -15 17 -26 43
-26 60 0 16 -4 29 -10 29 -5 0 -10 18 -10 40 0 22 -4 40 -8 40 -15 0 -31 65
-25 103 4 26 11 37 23 37 10 0 23 6 29 14 10 11 5 19 -21 37 -18 13 -34 27
-36 31 -2 4 -10 8 -19 8 -17 0 -9 39 13 56 18 15 18 34 -1 34 -8 0 -15 5 -15
10 0 6 5 10 10 10 6 0 10 7 10 15 0 20 -29 19 -53 -2 -15 -13 -21 -15 -24 -5
-3 7 -21 12 -44 12 -21 0 -39 5 -39 10 0 6 20 10 45 10 40 0 47 3 56 27 13 34
6 39 -61 46 -54 5 -56 4 -69 -24z m53 -27 c-22 -5 -31 7 -14 18 9 6 17 5 22
-3 4 -7 1 -13 -8 -15z m106 -92 c0 -5 -7 -10 -15 -10 -8 0 -15 5 -15 10 0 6 7
10 15 10 8 0 15 -4 15 -10z"/>
<path d="M5490 9105 c0 -8 7 -15 16 -15 14 0 14 3 4 15 -7 8 -14 15 -16 15 -2
0 -4 -7 -4 -15z"/>
<path d="M4000 9046 c0 -8 -7 -16 -15 -20 -8 -3 -15 -12 -15 -20 0 -8 -8 -17
-18 -20 -9 -3 -28 -20 -42 -38 -14 -17 -42 -50 -63 -74 -37 -41 -38 -45 -43
-131 -3 -63 -9 -91 -20 -99 -19 -15 -32 -84 -15 -84 7 0 10 -4 6 -9 -3 -5 -1
-12 4 -16 9 -5 45 91 46 122 0 6 4 15 8 19 4 4 7 15 7 25 0 22 32 70 88 129
23 25 42 52 42 61 0 9 7 19 15 23 8 3 15 12 15 21 0 9 7 27 16 40 10 15 13 32
9 42 -5 10 -7 24 -6 31 1 6 -3 12 -9 12 -5 0 -10 -6 -10 -14z"/>
<path d="M3460 8550 c0 -5 5 -10 10 -10 6 0 10 5 10 10 0 6 -4 10 -10 10 -5 0
-10 -4 -10 -10z"/>
<path d="M3260 8481 c-6 -1 -23 -14 -38 -28 -29 -26 -29 -27 33 -60 l30 -16
-30 -13 c-16 -7 -37 -13 -45 -14 -12 0 -11 -3 3 -14 18 -14 18 -14 0 -19 -10
-3 5 -2 32 0 28 3 54 10 60 14 5 5 19 9 32 9 18 0 23 6 23 24 0 13 -6 27 -12
29 -9 4 -7 6 3 6 9 1 24 10 34 21 17 19 17 21 2 38 -10 10 -14 22 -11 25 7 7
-94 5 -116 -2z"/>
<path d="M5614 8435 c-7 -18 3 -35 22 -35 8 0 14 10 14 25 0 27 -27 35 -36 10z"/>
<path d="M5600 8348 c0 -27 34 -75 43 -61 4 5 4 26 0 46 -4 27 -11 37 -24 37
-13 0 -19 -7 -19 -22z"/>
<path d="M3120 8339 c0 -12 5 -19 12 -17 18 6 20 25 3 31 -10 5 -15 0 -15 -14z"/>
<path d="M3185 8290 c-3 -5 -1 -10 4 -10 6 0 11 5 11 10 0 6 -2 10 -4 10 -3 0
-8 -4 -11 -10z"/>
<path d="M2984 8267 c-22 -13 -17 -24 18 -36 36 -13 33 -14 41 19 5 22 3 25
-19 25 -14 0 -32 -4 -40 -8z"/>
<path d="M3100 8260 c-22 -22 -19 -40 6 -40 8 0 14 7 14 15 0 8 4 15 8 15 5 0
17 7 28 15 18 14 18 14 -8 15 -16 0 -37 -9 -48 -20z"/>
<path d="M2830 8160 c0 -11 4 -20 9 -20 11 0 22 26 14 34 -12 12 -23 5 -23
-14z"/>
<path d="M2728 8153 c7 -3 16 -2 19 1 4 3 -2 6 -13 5 -11 0 -14 -3 -6 -6z"/>
<path d="M2728 8083 c7 -3 16 -2 19 1 4 3 -2 6 -13 5 -11 0 -14 -3 -6 -6z"/>
<path d="M2508 8003 c6 -2 18 -2 25 0 6 3 1 5 -13 5 -14 0 -19 -2 -12 -5z"/>
<path d="M3646 7995 c-8 -8 -20 -15 -26 -15 -6 0 -10 -6 -7 -12 2 -7 14 -13
27 -13 17 0 26 7 31 28 8 30 -2 35 -25 12z"/>
<path d="M3505 7990 c3 -5 8 -10 11 -10 2 0 4 5 4 10 0 6 -5 10 -11 10 -5 0
-7 -4 -4 -10z"/>
<path d="M5940 7971 c0 -24 25 -73 33 -64 4 3 13 0 21 -6 21 -18 31 5 11 25
-9 9 -23 27 -32 40 -18 29 -33 31 -33 5z"/>
<path d="M2408 7923 c7 -3 16 -2 19 1 4 3 -2 6 -13 5 -11 0 -14 -3 -6 -6z"/>
<path d="M6176 7904 c-13 -35 -7 -64 15 -64 18 0 19 -2 9 -15 -15 -19 -7 -30
16 -21 9 3 14 12 10 21 -3 8 -1 15 4 15 6 0 10 -5 10 -12 0 -9 3 -9 12 0 10
10 5 19 -20 42 -18 16 -32 34 -32 39 0 17 -17 13 -24 -5z"/>
<path d="M6375 7750 c3 -5 10 -10 16 -10 5 0 9 5 9 10 0 6 -7 10 -16 10 -8 0
-12 -4 -9 -10z"/>
<path d="M7177 7703 c-12 -11 -8 -23 8 -23 8 0 15 7 15 15 0 16 -12 20 -23 8z"/>
<path d="M4230 6799 c-19 -10 -43 -18 -52 -19 -10 0 -18 -6 -18 -14 0 -10 17
-17 55 -21 31 -4 58 -5 61 -2 3 2 8 21 11 41 7 42 -2 44 -57 15z"/>
<path d="M6117 6764 c-8 -8 1 -24 14 -24 5 0 9 7 9 15 0 15 -12 20 -23 9z"/>
<path d="M5128 6713 c-12 -27 -24 -52 -26 -56 -2 -5 4 -7 14 -6 11 2 25 0 32
-5 7 -4 19 -3 26 3 7 6 20 9 29 5 27 -10 30 16 4 40 -14 13 -28 33 -32 44 -10
33 -22 27 -47 -25z"/>
<path d="M4584 6645 c10 -8 35 -17 57 -20 21 -4 39 -12 39 -18 0 -16 16 4 24
28 5 19 1 20 -66 21 -62 2 -70 0 -54 -11z"/>
<path d="M5016 6648 c-22 -13 -59 -48 -54 -53 3 -3 54 7 106 21 19 5 14 20
-11 31 -16 7 -29 8 -41 1z"/>
<path d="M5985 6610 c3 -5 8 -10 11 -10 2 0 4 5 4 10 0 6 -5 10 -11 10 -5 0
-7 -4 -4 -10z"/>
<path d="M5996 6464 c-7 -18 41 -87 55 -78 17 10 9 51 -14 72 -28 26 -33 27
-41 6z"/>
<path d="M4733 6240 c-8 -20 -18 -30 -32 -30 -12 0 -21 -6 -21 -16 0 -10 8
-15 23 -14 35 3 40 1 28 -14 -8 -10 -8 -21 -1 -41 18 -48 28 -18 32 98 1 42
-16 52 -29 17z"/>
<path d="M4480 6209 c0 -5 5 -7 10 -4 6 3 10 8 10 11 0 2 -4 4 -10 4 -5 0 -10
-5 -10 -11z"/>
<path d="M5792 6193 c-5 -10 -12 -39 -14 -65 -5 -40 -3 -48 11 -48 19 1 61 34
61 48 0 5 7 16 16 23 14 11 20 9 41 -15 31 -37 39 -28 23 29 l-13 45 -58 0
c-45 0 -60 -4 -67 -17z"/>
<path d="M4620 6178 c-31 -33 -25 -92 10 -100 8 -2 20 -10 27 -18 11 -13 12
-11 12 10 0 14 2 34 6 46 4 13 1 27 -9 37 -9 8 -13 23 -10 31 9 23 -12 20 -36
-6z"/>
<path d="M4474 6161 c-2 -2 -4 -13 -4 -24 0 -11 3 -17 7 -14 3 4 15 -1 25 -10
24 -22 52 -7 56 29 3 22 0 24 -38 24 -23 -1 -43 -3 -46 -5z"/>
<path d="M4320 6127 c0 -11 -13 -15 -51 -15 -59 0 -87 -23 -41 -33 21 -5 22
-7 6 -8 -11 0 -24 -4 -28 -8 -4 -4 -40 -8 -80 -8 -82 0 -137 -22 -155 -62 -16
-34 -14 -51 9 -70 11 -10 20 -25 20 -35 0 -14 6 -16 38 -11 20 3 40 10 43 16
7 10 49 -27 49 -43 0 -5 -9 -10 -21 -10 -27 0 -20 -24 8 -28 27 -4 56 -36 59
-65 7 -61 40 -100 51 -59 3 14 12 17 34 14 19 -3 28 -9 25 -17 -6 -18 27 -48
40 -35 5 5 31 16 57 24 46 14 47 14 47 -7 1 -21 1 -21 14 -4 13 16 14 14 9
-22 -6 -45 6 -53 41 -26 13 10 24 11 37 5 25 -14 27 -13 31 12 5 32 21 31 40
-3 10 -17 22 -27 28 -24 14 8 13 -28 -1 -42 -17 -17 -3 -64 17 -56 11 4 12 9
5 16 -17 17 -13 27 11 27 12 0 29 7 39 16 9 8 27 16 40 17 13 0 27 6 31 11 5
7 11 7 19 -1 10 -10 15 -9 23 3 10 13 15 13 40 0 21 -10 36 -12 54 -5 16 6 29
6 38 -2 11 -9 14 -8 14 6 0 10 7 26 16 36 13 15 19 15 42 4 30 -16 138 -35
193 -35 33 0 36 2 32 24 -3 13 0 32 5 42 8 14 6 21 -6 30 -9 7 -13 18 -8 29 6
17 7 17 20 0 13 -18 14 -18 25 3 6 12 18 22 26 22 7 0 20 6 27 13 7 7 25 20
41 30 15 10 27 25 27 33 0 12 5 10 19 -7 l18 -23 32 31 c33 33 38 49 19 55 -6
2 -9 12 -5 21 5 12 14 16 33 13 34 -6 51 -21 58 -51 4 -14 13 -25 21 -25 11 0
13 8 8 33 -3 17 -9 34 -13 37 -4 3 -2 11 6 18 11 10 14 10 14 0 1 -7 8 -1 16
15 16 30 24 33 42 15 18 -18 25 -3 17 41 -7 44 -29 55 -40 21 -9 -27 -24 -25
-35 5 -5 14 -12 25 -16 25 -3 0 -4 -6 -1 -14 6 -16 -16 -40 -26 -29 -4 3 -7
17 -7 30 0 24 -23 32 -35 12 -4 -6 -14 -8 -22 -5 -8 3 -29 0 -46 -8 -34 -16
-104 -36 -124 -36 -6 0 -15 9 -18 20 -9 29 -27 25 -47 -10 -16 -28 -48 -42
-48 -20 0 6 5 10 11 10 27 0 -2 26 -36 31 -47 8 -75 1 -75 -17 0 -8 -7 -14
-15 -14 -8 0 -15 7 -15 16 0 14 -7 15 -37 10 -70 -12 -253 -18 -253 -8 0 5
-23 12 -51 16 -39 5 -55 3 -68 -9 -23 -20 -36 -19 -52 6 -12 17 -26 21 -92 24
-54 2 -84 8 -96 19 -10 9 -35 16 -57 16 -29 0 -35 -3 -24 -10 13 -9 13 -10 0
-10 -30 0 -43 16 -31 38 7 14 8 23 1 27 -5 3 -10 0 -10 -8z m110 -51 c0 -2 -7
-9 -15 -16 -12 -10 -15 -10 -15 4 0 9 7 16 15 16 8 0 15 -2 15 -4z m770 -406
c0 -11 -4 -20 -10 -20 -5 0 -10 9 -10 20 0 11 5 20 10 20 6 0 10 -9 10 -20z"/>
<path d="M3885 6090 c-3 -5 1 -10 10 -10 9 0 13 5 10 10 -3 6 -8 10 -10 10 -2
0 -7 -4 -10 -10z"/>
<path d="M3877 6063 c-10 -9 -8 -41 2 -47 16 -10 41 5 41 24 0 10 -7 21 -16
24 -19 7 -19 7 -27 -1z"/>
<path d="M5618 5819 c-10 -6 -18 -17 -18 -24 0 -20 39 -19 47 1 8 22 -8 35
-29 23z"/>
<path d="M3415 5729 c-4 -6 -5 -13 -2 -16 7 -7 27 6 27 18 0 12 -17 12 -25 -2z"/>
<path d="M5312 5169 c2 -7 10 -15 17 -17 8 -3 12 1 9 9 -2 7 -10 15 -17 17 -8
3 -12 -1 -9 -9z"/>
<path d="M5217 5153 c-13 -12 -7 -33 8 -33 8 0 15 9 15 20 0 20 -11 26 -23 13z"/>
<path d="M1222 10395 c-27 -12 -32 -18 -26 -39 3 -13 1 -27 -5 -30 -6 -4 -11
-17 -10 -29 0 -21 1 -21 9 -2 8 19 9 19 9 -3 1 -13 6 -32 11 -42 6 -11 11 -40
12 -66 2 -25 4 -41 6 -34 5 15 42 -29 42 -51 0 -20 75 -63 96 -55 17 6 19 36
3 36 -8 0 -8 5 1 15 20 23 28 18 51 -30 12 -25 27 -45 35 -45 23 0 16 40 -13
69 -32 32 -63 92 -63 122 0 12 -10 35 -22 52 -12 17 -35 57 -50 89 -29 62 -35
65 -86 43z m73 -305 c3 -5 1 -10 -4 -10 -6 0 -11 5 -11 10 0 6 2 10 4 10 3 0
8 -4 11 -10z"/>
<path d="M1343 10023 c-18 -7 -16 -23 2 -23 8 0 15 7 15 15 0 8 -1 15 -2 14
-2 0 -9 -3 -15 -6z"/>
<path d="M1760 9719 c0 -5 5 -7 10 -4 6 3 10 8 10 11 0 2 -4 4 -10 4 -5 0 -10
-5 -10 -11z"/>
<path d="M1290 9579 c0 -11 5 -17 10 -14 6 3 10 13 10 21 0 8 -4 14 -10 14 -5
0 -10 -9 -10 -21z"/>
<path d="M1660 8758 c0 -6 8 -20 18 -31 9 -11 11 -17 5 -13 -14 8 -17 -12 -5
-30 10 -16 51 -36 61 -30 13 8 -1 59 -25 89 -22 27 -54 37 -54 15z"/>
<path d="M7996 8584 c-9 -35 -2 -40 12 -9 6 13 7 27 3 30 -5 2 -12 -7 -15 -21z"/>
<path d="M7890 8349 c-24 -26 -58 -54 -75 -61 -38 -15 -45 -25 -45 -65 0 -39
3 -40 42 -10 66 48 105 95 116 138 6 24 10 44 9 45 -1 1 -22 -20 -47 -47z"/>
<path d="M2466 4995 c-20 -21 -20 -21 4 -45 16 -16 20 -17 20 -5 0 8 5 15 11
15 14 0 7 42 -7 47 -7 2 -19 -3 -28 -12z"/>
<path d="M2660 4142 c0 -22 60 -80 77 -75 8 3 5 18 -9 49 -17 33 -28 44 -45
44 -16 0 -23 -6 -23 -18z"/>
<path d="M2386 4109 c-4 -8 -3 -26 3 -40 8 -21 10 -22 16 -6 4 10 3 28 -3 40
-8 18 -11 19 -16 6z"/>
<path d="M2286 3913 c-15 -15 -4 -33 19 -33 17 0 25 5 25 18 0 17 -31 28 -44
15z"/>
</g>
</svg>
